<?xml version="1.0" encoding="UTF-8"?>
<svg id="Layer_2" data-name="Layer 2" xmlns="http://www.w3.org/2000/svg" viewBox="0 0 364.18 452.52">
  <defs>
    <style>
      .cls-1 {
        fill: #9b8db4;
      }

      .cls-2 {
        fill: none;
        stroke: #9b8db4;
        stroke-linecap: round;
        stroke-miterlimit: 10;
        stroke-width: 60px;
      }
    </style>
  </defs>
  <g id="Layer_1-2" data-name="Layer 1">
    <path class="cls-1" d="M319.59,452.32c-39.25-12.96-87.95-30.03-127.22-43.59-24.83-8.8-52-18.22-76.64-27.06-4.46-2.2-8.37-6.14-10.17-10.88-3.7-8.82.06-19.81,8.1-24.64,1.55-1.09,5.44-3.94,7.05-5.09,17.32-12.45,34.81-25.08,51.26-38.52,10.05-8.23,20.43-17.07,28.91-26.82,3.46-4,6.76-8.21,8.83-12.47.82-1.69,1.13-3.04,1.04-3.43.03-.14-.1-.09-.09-.11-.34.48-.36,1.11-.34,2.01.05,1.14.45,2.2.71,3.14.05.09-.07.09-.09.09-12.24-6.59-27.64-8.7-42.09-10.51-42.01-4.62-84.31-1.01-126.55-.31-19.49.7-37.67-13.84-41.43-33.14-3.62-16.32,3.99-34.55,18.19-43.42,30.6-18.13,63.09-34.41,96.2-48.69,53.78-23.37,108.84-43.89,165.74-59.19,14.06-4.34,28.28-8.51,43.12-11.84,3.82-.79,6.83,3.71,4.05,6.89-7.69,8.5-15.78,16.38-24.02,24.26-35.46,32.18-75.18,59.62-114.89,85.98-39.77,25.87-80.59,50.22-123.64,70.23,0,0-4.97,2.29-4.97,2.29,0,0-.62.29-.62.29-.8.41,1.23-.59,3.12-1.82,3.61-2.31,7.12-5.51,9.89-9.1,14.74-18.89,9.02-47.06-11.84-58.7-5.2-3.11-12.6-5.03-18.17-5.11,7.94.67,15.88,1.41,23.87,2.26,29.61,3.17,59.72,7,89.25,11.86,29.03,5.1,60.63,10.54,85.88,27.94,32.8,23.53,31.27,60.06,5.42,88.02-12.65,13.94-27.49,24.54-42.93,34.84-20.21,13.23-41.55,25.02-62.65,36.63-1.64.86-5.99,3.29-7.64,4.17,11.15-7.04,11.31-24.39-.98-31.23,35.8,17.96,99.02,50.28,141.82,72.42,15.89,8.32,31.82,16.54,47.66,24.97,1.96,1.04,2.7,3.47,1.66,5.43-.93,1.75-2.98,2.53-4.8,1.93h0Z"/>
    <polyline class="cls-2" points="223.44 30 326.16 61.33 292.58 164.04"/>
  </g>
</svg>